<svg id="图层_1" data-name="图层 1" xmlns="http://www.w3.org/2000/svg" viewBox="0 0 21.66 13.3"><defs><style>.cls-1{fill:#61ff73;}.cls-2{fill:#29aae1;}</style></defs><path class="cls-1" d="M22.65,17.41c0-.05,0-.08,0-.08a4.51,4.51,0,0,1-.53-.09.89.89,0,0,1-.54-.35,3,3,0,0,1-.27-.64c-.1-.24-.14-.5-.23-.75s-.15-.56-.25-.84-.15-.52-.23-.79-.16-.56-.25-.84-.15-.53-.24-.79-.15-.55-.24-.81-.14-.52-.22-.77-.16-.58-.26-.87-.14-.51-.23-.75-.16-.58-.24-.87-.15-.63-.23-1c0,0,0,0-.06,0s-.26,0-.4,0l-.19,0s0,0,0,0-.09.25-.13.38-.15.42-.22.62-.12.32-.19.47l-.33.84-.19.48c-.12.3-.25.6-.35.9,0,0,0,.08-.07.11l0,.08c-.12.29-.23.57-.34.86s-.13.31-.19.47-.22.55-.33.83-.13.33-.19.5l-.33.82c-.06.17-.13.33-.19.49-.12.31-.25.63-.39.93a3,3,0,0,1-.37.58.87.87,0,0,1-.55.32A3,3,0,0,1,13,17s0,0,0,.07a2.64,2.64,0,0,1,0,.29c0,.06,0,.06.07.07H14l.9,0,1.19.07c.05,0,.07,0,.08-.06a2.83,2.83,0,0,1,0-.3s0-.06-.05-.07l-.22,0a1.41,1.41,0,0,1-.62-.17.39.39,0,0,1-.18-.4,4.05,4.05,0,0,1,.12-.47c.06-.22.15-.43.23-.64s.17-.47.26-.7.21-.58.31-.86c0-.05,0-.06.07-.06l.49,0,1.52,0,.88,0c.05,0,.1,0,.12.06.06.26.14.51.21.75s.19.69.29,1,.15.54.22.81a.65.65,0,0,1,0,.31.39.39,0,0,1-.37.3,5.7,5.7,0,0,1-.58.06s-.05,0,0,.06a2.65,2.65,0,0,0,0,.27c0,.06,0,.09.08.08l1.42,0,.9,0,1.23.07s.07,0,.08-.07A2.7,2.7,0,0,0,22.65,17.41Zm-6.31-4.28c.09-.23.17-.45.25-.67s.27-.71.4-1.07c.07-.2.15-.4.23-.6s.23-.64.35-1,.15-.39.23-.6c.38,1.33.75,2.65,1.14,4Z" transform="translate(-0.99 -5.55)"/><path class="cls-2" d="M8.12,13.12a8.66,8.66,0,0,1-.38,1.08c0,.08-.11.16-.1.24s.12.14.19.2c.37.36.76.71,1.16,1a10.87,10.87,0,0,0,1,.78,6.93,6.93,0,0,0,1.85.91c.59.18,1.18.35,1.78.51.42.12.85.22,1.26.37,0,0,.13,0,.12.09s-.08.06-.12.07a15.16,15.16,0,0,1-1.88.35,5.85,5.85,0,0,1-1.62,0,2,2,0,0,1-.67-.23,6.74,6.74,0,0,1-1.27-.92,13,13,0,0,1-1.08-1.14c-.37-.41-.74-.84-1.09-1.25-.09-.1-.09-.1-.19,0l-.47.41a8.92,8.92,0,0,1-1.34.85,7.73,7.73,0,0,1-1.7.57,6,6,0,0,1-1.64.17,5.67,5.67,0,0,1-.72-.06l-.18,0s-.06,0-.05-.06A.06.06,0,0,1,1,17.05a1.41,1.41,0,0,1,.38-.12c.47-.11,1-.16,1.44-.3a9.11,9.11,0,0,0,1-.36,7.64,7.64,0,0,0,1.4-.77c.24-.17.46-.39.7-.6a3.72,3.72,0,0,0,.48-.56.08.08,0,0,0,0-.13c-.27-.37-.54-.73-.84-1.07-.15-.18-.3-.37-.46-.55a6.8,6.8,0,0,0-1.17-1,.69.69,0,0,1-.17-.17c-.07-.1,0-.17.07-.19a1.41,1.41,0,0,1,.5,0,2.39,2.39,0,0,1,1.22.85l.65.77c.17.21.32.42.5.63a.53.53,0,0,0,.13.13,4.74,4.74,0,0,0,.3-.79,11.43,11.43,0,0,0,.38-2,2.06,2.06,0,0,0-.06-.89c0-.07,0-.09-.12-.07l-1.22.22c-.65.12-1.29.24-1.94.31a2.28,2.28,0,0,1-1-.05.93.93,0,0,1-.41-.26c-.05,0-.09-.08-.06-.15s.1-.07.16-.07a6.88,6.88,0,0,0,.9-.1c.54-.09,1.08-.2,1.62-.31l1.94-.38,1.89-.39,1.23-.31a3.08,3.08,0,0,1,1.13,0,1.29,1.29,0,0,1,.66.27,1.32,1.32,0,0,1,.29.24c.09.13.08.22-.06.29a1.86,1.86,0,0,1-.66.14c-.79.06-1.6.13-2.39.24a11.79,11.79,0,0,0-1.34.28l-.09,0a5,5,0,0,1,.62.49l.12.14a.28.28,0,0,1,0,.34,2.48,2.48,0,0,0-.28.76c-.12.42-.23.85-.34,1.29l-.06.24S8.15,13.09,8.12,13.12Z" transform="translate(-0.99 -5.55)"/><path class="cls-2" d="M6.92,5.59A4.78,4.78,0,0,1,8,5.87a1.3,1.3,0,0,1,.79.9.62.62,0,0,1-.06.48.34.34,0,0,1-.33.17,1,1,0,0,1-.46-.16,4.77,4.77,0,0,1-.64-.43,6.68,6.68,0,0,1-1-.88.62.62,0,0,1-.12-.19c0-.11,0-.19.1-.2A2.25,2.25,0,0,1,6.92,5.59Z" transform="translate(-0.99 -5.55)"/></svg>