<?xml version="1.0" encoding="utf-8"?>
<!-- Generator: Adobe Illustrator 26.0.1, SVG Export Plug-In . SVG Version: 6.00 Build 0)  -->
<svg version="1.1" id="图层_1" xmlns="http://www.w3.org/2000/svg" xmlns:xlink="http://www.w3.org/1999/xlink" x="0px" y="0px"
	 viewBox="0 0 24 24" style="enable-background:new 0 0 24 24;" xml:space="preserve">
<style type="text/css">
	.st0{fill:#61FF73;}
	.st1{fill:#29AAE1;}
</style>
<g>
	<path class="st0" d="M13.5,11.6C13.5,11.6,13.4,11.5,13.5,11.6c-0.3,0-0.6,0-0.8,0.1c-0.3,0-0.6,0-0.8-0.1
		c-0.2-0.1-0.4-0.4-0.6-0.6c-0.2-0.2-0.4-0.5-0.6-0.7c-0.2-0.3-0.4-0.6-0.6-0.8C9.9,9.2,9.7,8.9,9.5,8.7C9.3,8.4,9.1,8.1,8.9,7.8
		C8.6,7.6,8.5,7.3,8.3,7.1C8,6.8,7.9,6.5,7.6,6.3C7.4,6.1,7.3,5.8,7.1,5.5C6.8,5.3,6.6,5,6.4,4.7C6.2,4.5,6,4.2,5.8,4
		C5.6,3.7,5.4,3.4,5.2,3.1C4.9,2.8,4.8,2.5,4.5,2.2c0,0,0,0-0.1,0C4.3,2.2,4.1,2.3,4,2.4c-0.1,0-0.2,0.1-0.2,0.1c0,0,0,0,0,0.1
		c0,0.2,0,0.3,0,0.5c0,0.3,0,0.5,0,0.8c0,0.2,0,0.4,0,0.6c0,0.4-0.1,0.7-0.1,1.1c0,0.2,0,0.4,0,0.6c0,0.4-0.1,0.8-0.1,1.1
		c0,0,0,0.1,0,0.2c0,0,0,0.1,0,0.1c0,0.4-0.1,0.7-0.1,1.1c0,0.2,0,0.4,0,0.6c0,0.4,0,0.7-0.1,1.1c0,0.2,0,0.4,0,0.6
		c0,0.4,0,0.7-0.1,1.1c0,0.2,0,0.4,0,0.6c0,0.4-0.1,0.8-0.1,1.2c0,0.3-0.1,0.6-0.2,0.8c-0.1,0.3-0.3,0.5-0.6,0.6
		c-0.2,0.1-0.4,0.2-0.6,0.3c0,0,0,0.1,0,0.1c0,0.1,0.1,0.2,0.1,0.3c0,0.1,0.1,0.1,0.1,0.1c0.4-0.1,0.8-0.3,1.2-0.4
		c0.4-0.1,0.7-0.3,1.1-0.4c0.5-0.1,1-0.3,1.5-0.4c0.1,0,0.1,0,0.1-0.1c0-0.1-0.1-0.2-0.1-0.3c0,0,0-0.1-0.1-0.1
		c-0.1,0-0.2,0.1-0.3,0.1c-0.3,0.1-0.5,0.1-0.8,0.1c-0.2,0-0.3-0.2-0.4-0.4c0-0.2,0-0.4,0-0.6c0-0.3,0-0.5,0-0.8c0-0.3,0-0.6,0-0.9
		c0-0.4,0-0.7,0-1.1c0-0.1,0-0.1,0.1-0.1c0.2-0.1,0.4-0.1,0.6-0.2c0.6-0.2,1.3-0.4,1.9-0.6c0.4-0.1,0.7-0.2,1.1-0.4
		c0.1,0,0.1-0.1,0.2,0C8,9.6,8.2,9.9,8.4,10.1c0.3,0.3,0.5,0.7,0.8,1c0.2,0.3,0.4,0.5,0.6,0.8c0.1,0.1,0.1,0.2,0.1,0.3
		c0,0.2-0.1,0.4-0.3,0.5c-0.2,0.1-0.4,0.2-0.7,0.3c-0.1,0-0.1,0,0,0.1c0,0.1,0.1,0.2,0.1,0.3c0,0.1,0.1,0.1,0.1,0.1
		c0.6-0.2,1.2-0.4,1.8-0.6c0.4-0.1,0.7-0.2,1.1-0.4c0.5-0.2,1-0.3,1.6-0.5c0.1,0,0.1-0.1,0.1-0.1C13.5,11.8,13.5,11.7,13.5,11.6z
		 M4,9.7c0-0.3,0-0.6,0-0.9c0-0.4,0-0.9,0.1-1.3c0-0.3,0-0.5,0-0.8c0-0.4,0-0.8,0.1-1.2c0-0.2,0-0.5,0-0.8c1,1.3,2,2.6,3,3.9
		C6.2,9,5.1,9.4,4,9.7z"/>
	<path class="st1" d="M15.1,16.8c0,0.4-0.1,0.8-0.2,1.1c0,0.1-0.1,0.2-0.1,0.3c0,0.1,0.1,0.1,0.2,0.2c0.4,0.3,0.9,0.6,1.3,0.9
		c0.4,0.2,0.7,0.5,1.1,0.6c0.6,0.3,1.3,0.5,2,0.6c0.6,0.1,1.2,0.2,1.8,0.3c0.4,0.1,0.9,0.1,1.3,0.2c0,0,0.1,0,0.1,0.1
		c0,0-0.1,0.1-0.1,0.1c-0.6,0.2-1.2,0.4-1.8,0.6c-0.5,0.1-1,0.3-1.6,0.3c-0.2,0-0.5,0-0.7-0.1c-0.5-0.2-1-0.4-1.4-0.7
		c-0.4-0.3-0.8-0.6-1.2-1c-0.4-0.4-0.8-0.7-1.2-1.1c-0.1-0.1-0.1-0.1-0.2,0c-0.1,0.2-0.3,0.3-0.4,0.5c-0.4,0.4-0.8,0.7-1.2,1
		c-0.5,0.3-1,0.6-1.6,0.8c-0.5,0.2-1,0.3-1.6,0.4c-0.2,0-0.5,0-0.7,0c-0.1,0-0.1,0-0.2,0c0,0-0.1,0-0.1,0c0,0,0,0,0-0.1
		c0.1-0.1,0.2-0.1,0.4-0.2c0.5-0.2,0.9-0.3,1.4-0.5c0.3-0.1,0.7-0.3,1-0.5c0.5-0.3,0.9-0.6,1.3-1c0.2-0.2,0.4-0.5,0.6-0.7
		c0.2-0.2,0.3-0.4,0.4-0.6c0,0,0-0.1,0-0.1c-0.3-0.3-0.6-0.6-1-1c-0.2-0.2-0.4-0.3-0.5-0.5c-0.4-0.3-0.8-0.6-1.3-0.9
		c-0.1,0-0.1-0.1-0.2-0.1c-0.1-0.1-0.1-0.2,0.1-0.2c0.2-0.1,0.3-0.1,0.5,0c0.5,0.1,0.9,0.3,1.3,0.7c0.2,0.2,0.5,0.5,0.8,0.7
		c0.2,0.2,0.4,0.4,0.6,0.5c0,0,0.1,0.1,0.1,0.1c0.1-0.3,0.1-0.5,0.2-0.8c0.1-0.7,0.1-1.4,0.1-2.1c0-0.3,0-0.6-0.2-0.9
		c0-0.1-0.1-0.1-0.1-0.1c-0.4,0.1-0.8,0.3-1.2,0.4c-0.6,0.2-1.2,0.4-1.9,0.6c-0.3,0.1-0.6,0.1-1,0.1c-0.2,0-0.3-0.1-0.4-0.2
		c-0.1,0-0.1-0.1-0.1-0.1c0-0.1,0.1-0.1,0.1-0.1c0.3,0,0.6-0.1,0.9-0.2c0.5-0.2,1-0.3,1.6-0.5c0.6-0.2,1.2-0.4,1.9-0.6
		c0.6-0.2,1.2-0.4,1.8-0.6c0.4-0.1,0.8-0.3,1.2-0.5c0.4-0.1,0.7-0.2,1.1-0.2c0.2,0,0.5,0.1,0.7,0.2c0.1,0.1,0.2,0.1,0.3,0.2
		c0.1,0.1,0.1,0.2,0,0.3c-0.2,0.1-0.4,0.2-0.6,0.2c-0.8,0.2-1.6,0.4-2.3,0.6c-0.4,0.1-0.9,0.3-1.3,0.5c0,0-0.1,0-0.1,0
		c0.2,0.1,0.5,0.2,0.7,0.4c0.1,0,0.1,0.1,0.1,0.1c0.1,0.1,0.1,0.2,0.1,0.3c-0.1,0.2-0.1,0.5-0.2,0.8c-0.1,0.4-0.1,0.9-0.2,1.3
		C15.1,16.5,15.1,16.6,15.1,16.8C15.1,16.7,15.1,16.7,15.1,16.8z"/>
	<path class="st1" d="M12.8,9.5c0.3,0,0.7,0,1.1,0.1c0.4,0.1,0.7,0.4,0.9,0.8c0.1,0.2,0.1,0.3,0,0.5c-0.1,0.1-0.1,0.2-0.3,0.2
		c-0.2,0-0.3,0-0.5-0.1c-0.2-0.1-0.5-0.2-0.7-0.3c-0.4-0.2-0.7-0.5-1.1-0.7c-0.1-0.1-0.1-0.1-0.1-0.2c-0.1-0.1,0-0.2,0.1-0.2
		C12.4,9.5,12.6,9.5,12.8,9.5z"/>
</g>
</svg>
