<?xml version="1.0" encoding="utf-8"?>
<!-- Generator: Adobe Illustrator 26.0.1, SVG Export Plug-In . SVG Version: 6.00 Build 0)  -->
<svg version="1.1" id="图层_1" xmlns="http://www.w3.org/2000/svg" xmlns:xlink="http://www.w3.org/1999/xlink" x="0px" y="0px"
	 viewBox="0 0 24 24" style="enable-background:new 0 0 24 24;" xml:space="preserve">
<style type="text/css">
	.st0{fill:#FFFFFF;}
	.st1{fill:#29AAE1;}
</style>
<g>
	<path class="st0" d="M13.48,11.62c-0.01-0.05-0.03-0.08-0.09-0.06c-0.23,0.06-0.46,0.1-0.69,0.13c-0.29,0.04-0.55,0-0.8-0.15
		c-0.24-0.15-0.4-0.38-0.59-0.58c-0.21-0.22-0.37-0.49-0.57-0.72c-0.23-0.26-0.41-0.55-0.64-0.82C9.88,9.18,9.71,8.91,9.5,8.66
		C9.27,8.4,9.08,8.11,8.86,7.84C8.65,7.6,8.47,7.32,8.26,7.08c-0.22-0.25-0.4-0.54-0.62-0.79C7.44,6.05,7.27,5.78,7.06,5.54
		C6.83,5.28,6.64,4.97,6.4,4.7C6.19,4.47,6.03,4.2,5.82,3.97C5.59,3.7,5.4,3.4,5.18,3.12c-0.23-0.3-0.43-0.63-0.65-0.94
		c-0.03-0.05-0.04-0.05-0.1-0.03C4.28,2.21,4.13,2.3,3.96,2.36C3.88,2.38,3.81,2.43,3.73,2.46C3.7,2.48,3.68,2.49,3.68,2.53
		c0,0.16-0.01,0.32-0.01,0.48c0,0.26-0.02,0.52-0.03,0.78c-0.01,0.2-0.02,0.4-0.04,0.6C3.57,4.75,3.55,5.1,3.52,5.46
		c-0.01,0.2-0.03,0.4-0.04,0.61C3.45,6.45,3.41,6.84,3.4,7.22c-0.04,0.04,0,0.1-0.04,0.15c0,0.03,0,0.07,0,0.1
		C3.32,7.84,3.3,8.2,3.27,8.57c-0.01,0.2-0.03,0.39-0.04,0.59c-0.02,0.35-0.05,0.71-0.08,1.06c-0.02,0.21-0.03,0.43-0.04,0.64
		c-0.03,0.35-0.05,0.7-0.08,1.05C3.02,12.12,3,12.33,2.99,12.53c-0.03,0.4-0.06,0.8-0.12,1.2c-0.04,0.28-0.11,0.55-0.22,0.8
		C2.53,14.79,2.35,15,2.09,15.12c-0.2,0.1-0.39,0.22-0.61,0.29c-0.05,0.02-0.03,0.06-0.02,0.09c0.04,0.1,0.1,0.2,0.14,0.31
		c0.02,0.07,0.06,0.06,0.11,0.05c0.39-0.13,0.77-0.27,1.16-0.4c0.37-0.13,0.74-0.26,1.12-0.37c0.5-0.15,0.99-0.3,1.49-0.45
		c0.06-0.02,0.08-0.04,0.07-0.1c-0.03-0.11-0.06-0.23-0.09-0.34c-0.01-0.04-0.03-0.06-0.08-0.05c-0.09,0.03-0.19,0.05-0.28,0.07
		c-0.27,0.06-0.54,0.14-0.83,0.09c-0.19-0.03-0.34-0.16-0.38-0.36c-0.04-0.19-0.03-0.38-0.04-0.57c-0.02-0.27,0.02-0.54,0.03-0.81
		c0.01-0.29,0.02-0.59,0.04-0.88c0.02-0.36,0.03-0.73,0.04-1.09c0-0.06,0.02-0.08,0.07-0.1c0.2-0.06,0.4-0.13,0.6-0.19
		c0.63-0.2,1.27-0.41,1.9-0.61c0.36-0.12,0.73-0.24,1.09-0.35C7.69,9.32,7.75,9.29,7.8,9.37c0.18,0.25,0.37,0.49,0.55,0.73
		c0.26,0.33,0.51,0.67,0.77,1.01c0.2,0.26,0.4,0.53,0.59,0.8c0.07,0.1,0.13,0.21,0.14,0.34c0.02,0.21-0.1,0.37-0.34,0.49
		c-0.23,0.11-0.45,0.24-0.69,0.32c-0.05,0.02-0.05,0.04-0.03,0.08c0.04,0.1,0.08,0.19,0.13,0.29c0.03,0.07,0.06,0.09,0.13,0.06
		c0.59-0.2,1.18-0.4,1.77-0.6c0.37-0.12,0.74-0.24,1.11-0.36c0.52-0.16,1.03-0.32,1.55-0.47c0.06-0.02,0.07-0.05,0.06-0.11
		C13.53,11.84,13.51,11.73,13.48,11.62z M4.03,9.7c0.02-0.29,0.03-0.57,0.04-0.85C4.09,8.4,4.12,7.95,4.14,7.5
		c0.01-0.26,0.03-0.51,0.04-0.77c0.02-0.4,0.04-0.8,0.06-1.21c0.01-0.25,0.03-0.49,0.04-0.76c1,1.3,1.98,2.59,2.98,3.89
		C6.19,9,5.11,9.35,4.03,9.7z"/>
	<path class="st1" d="M15.06,16.76c-0.04,0.38-0.14,0.75-0.23,1.12c-0.02,0.09-0.08,0.18-0.06,0.26c0.02,0.08,0.13,0.12,0.21,0.17
		c0.42,0.3,0.85,0.6,1.29,0.88c0.36,0.23,0.73,0.45,1.11,0.64c0.62,0.3,1.27,0.53,1.96,0.64c0.61,0.1,1.22,0.19,1.83,0.27
		c0.43,0.06,0.87,0.1,1.3,0.19c0.05,0.01,0.13,0,0.13,0.07c0,0.05-0.07,0.07-0.11,0.09c-0.59,0.25-1.2,0.43-1.81,0.6
		c-0.52,0.15-1.05,0.26-1.6,0.26c-0.24,0-0.47-0.04-0.7-0.13c-0.49-0.2-0.95-0.44-1.38-0.74c-0.43-0.3-0.83-0.63-1.23-0.98
		c-0.42-0.36-0.84-0.73-1.25-1.09c-0.1-0.09-0.1-0.09-0.19,0.02c-0.13,0.16-0.26,0.32-0.41,0.47c-0.37,0.38-0.77,0.73-1.21,1.03
		c-0.5,0.33-1.04,0.59-1.6,0.8c-0.52,0.2-1.04,0.33-1.6,0.39c-0.24,0.02-0.49,0.04-0.73,0.04c-0.06,0-0.12-0.01-0.18-0.02
		c-0.03,0-0.06-0.01-0.06-0.05c0-0.03,0.02-0.05,0.04-0.07c0.11-0.07,0.23-0.12,0.36-0.17c0.46-0.17,0.94-0.29,1.39-0.49
		c0.34-0.15,0.66-0.31,0.98-0.5c0.46-0.28,0.89-0.59,1.28-0.95c0.22-0.21,0.41-0.45,0.61-0.69c0.16-0.19,0.28-0.41,0.4-0.62
		c0.03-0.05,0.04-0.08-0.01-0.13c-0.32-0.33-0.64-0.65-0.98-0.95c-0.18-0.16-0.35-0.32-0.53-0.48c-0.4-0.33-0.83-0.62-1.3-0.86
		c-0.08-0.04-0.15-0.09-0.2-0.15c-0.08-0.09-0.06-0.16,0.05-0.19c0.16-0.05,0.33-0.05,0.5-0.03c0.52,0.06,0.94,0.33,1.32,0.67
		c0.25,0.22,0.5,0.45,0.75,0.68c0.2,0.18,0.38,0.37,0.58,0.55c0.04,0.04,0.09,0.08,0.15,0.11c0.09-0.27,0.15-0.54,0.19-0.82
		c0.1-0.68,0.13-1.36,0.1-2.05c-0.01-0.3-0.04-0.6-0.18-0.88c-0.03-0.06-0.06-0.08-0.13-0.05c-0.39,0.13-0.78,0.26-1.18,0.39
		c-0.62,0.2-1.24,0.41-1.88,0.57c-0.31,0.08-0.63,0.13-0.96,0.08c-0.17-0.03-0.32-0.1-0.45-0.2c-0.05-0.03-0.1-0.07-0.08-0.14
		c0.02-0.07,0.09-0.08,0.15-0.09c0.3-0.04,0.59-0.14,0.88-0.23c0.52-0.16,1.04-0.34,1.56-0.52c0.62-0.22,1.24-0.43,1.87-0.64
		c0.61-0.21,1.22-0.42,1.82-0.65c0.4-0.15,0.79-0.31,1.18-0.47c0.36-0.14,0.73-0.21,1.11-0.21c0.25,0,0.48,0.06,0.69,0.18
		c0.11,0.06,0.23,0.11,0.32,0.2c0.11,0.11,0.11,0.2-0.02,0.29c-0.19,0.13-0.41,0.18-0.63,0.23c-0.78,0.17-1.57,0.35-2.34,0.57
		c-0.44,0.13-0.87,0.28-1.29,0.46c-0.02,0.01-0.05,0.02-0.08,0.04c0.24,0.13,0.47,0.24,0.68,0.4c0.05,0.04,0.09,0.08,0.14,0.12
		c0.1,0.09,0.12,0.2,0.07,0.33c-0.11,0.25-0.14,0.52-0.17,0.79c-0.06,0.44-0.11,0.88-0.16,1.33c-0.01,0.08-0.02,0.17-0.03,0.25
		C15.07,16.7,15.09,16.73,15.06,16.76z"/>
	<path class="st1" d="M12.84,9.47c0.32,0.01,0.71,0.02,1.09,0.13c0.42,0.12,0.74,0.36,0.91,0.78c0.06,0.16,0.07,0.33,0,0.49
		c-0.06,0.13-0.15,0.2-0.3,0.21c-0.17,0.01-0.32-0.03-0.48-0.09c-0.24-0.1-0.47-0.21-0.69-0.34c-0.38-0.22-0.74-0.46-1.07-0.74
		c-0.06-0.05-0.11-0.11-0.15-0.18c-0.06-0.1-0.04-0.18,0.08-0.21C12.41,9.47,12.59,9.47,12.84,9.47z"/>
</g>
</svg>
